/* XPM */
static char * quest_xpm[] = {
"34 34 4 1",
" 	c None",
".	c #888888",
"+	c #FFFFFF",
"@	c #000000",
"                                  ",
"            ........              ",
"         ...++++++++...           ",
"       ..++++++++++++++..         ",
"      .++++++++++++++++++.        ",
"     .++++++++@@@@@+++++++@       ",
"    .++++++++@++++@@+++++++@      ",
"   .++++++++@@@++++@@+++++++@     ",
"  .+++++++++@@@@+++@@++++++++@    ",
"  .++++++++++@@+++@@@++++++++@.   ",
" .+++++++++++++++@@@@+++++++++@.  ",
" .++++++++++++++@@@@++++++++++@.  ",
" .++++++++++++@@@@@@++++++++++@.. ",
" .++++++++++++@@@@@+++++++++++@.. ",
" .++++++++++++@@@+++++++++++++@.. ",
" .++++++++++++@@++++++++++++++@.. ",
" .++++++++++++@+++++++++++++++@.. ",
"  .+++++++++++@++++++++++++++@... ",
"  .++++++++++++++++++++++++++@... ",
"   .++++++++++@@++++++++++++@...  ",
"    @++++++++@@@@++++++++++@....  ",
"     @++++++++@@++++++++++@....   ",
"      @++++++++++++++++++@....    ",
"       @@++++++++++++++@@....     ",
"        .@@@++++++++@@@.....      ",
"         ...@@@++++@.......       ",
"           ....@+++@.....         ",
"              .@+++@..            ",
"                @++@..            ",
"                 @+@..            ",
"                  @@..            ",
"                   ...            ",
"                    ..            ",
"                                  "};
