/* XPM */
static char * tb_cut_xpm[] = {
"18 18 3 1",
" 	c None",
".	c #000000",
"+	c #888888",
"                  ",
"     .     .+     ",
"     .+    .+     ",
"      .   .+      ",
"      .+  .+      ",
"       . .+       ",
"       .+.+       ",
"        .+        ",
"       ...+       ",
"     +.+  .+      ",
"    ...+  ...     ",
"   .++.+  .+ .    ",
"   .  .+  .+ .+   ",
"   .  .+  .+ .+   ",
"    ..++   ..+    ",
"    ++     ++     ",
"                  ",
"                  "};
