/* XPM */
static char * tb_exit_xpm[] = {
"18 18 4 1",
" 	c None",
".	c #000000",
"+	c #FFFFFF",
"@	c #FF1144",
"                  ",
"                  ",
"        ......... ",
"        .++++++.. ",
"        .++++++.. ",
"      ...++++++.. ",
"      .@.++++++.. ",
" ......@@.++..+.. ",
" .@@@@@@@@.+..+.. ",
" .@@@@@@@@.++++.. ",
" ......@@.+++++.. ",
"      .@.++++++.. ",
"      ...++++++.. ",
"        .++++.... ",
"        .++...... ",
"        ......... ",
"                  ",
"                  "};
