/* XPM */
static char * tb_find_prev_xpm[] = {
"18 18 9 1",
" 	c None",
".	c #000000",
"+	c #FFFFFF",
"@	c #DDDDDD",
"#	c #BBBBBB",
"$	c #880000",
"%	c #FF1144",
"&	c #BBCCDD",
"*	c #888888",
"                  ",
"  .........       ",
"  .+++++++..      ",
"  .+++++++.@.     ",
"  #+$+++++....    ",
"  +$$++++++++.    ",
"  $%$$$$$+....    ",
" $%%%%%%$.&&&&.   ",
"$%%%%%%%.&++&&&.  ",
" $%%%%%%.&+&&&&.  ",
"  $%$$$$.&&&&&&.  ",
"  +$$+++.&&&+&&.  ",
"  #+$++++.&&&&.#  ",
"  .+++++++....#.. ",
"  .++++++++++. ...",
"  ............  ..",
"     **********   ",
"                  "};
