/* XPM */
static char * tb_find_help_xpm[] = {
"18 18 6 1",
" 	c None",
".	c #000000",
"+	c #888888",
"@	c #DDDDDD",
"#	c #FFFFFF",
"$	c #BBCCDD",
"                  ",
"                  ",
"    .....+        ",
"   ..  +..+       ",
"  ..+   ...       ",
"  ..+   ....      ",
"  +..  .@##@.     ",
"      .@$$#@@.    ",
"      .####@#.    ",
"     ..@##$@@.    ",
"     ...@##@.+    ",
"        ....+..   ",
"     ..+     ...  ",
"     ..+      ..  ",
"     ..+          ",
"      ++          ",
"                  ",
"                  "};
