/* XPM */
static char * tb_macro_xpm[] = {
"18 18 4 1",
" 	c None",
".	c #888888",
"+	c #000000",
"@	c #FFFFFF",
"      .++.        ",
"     .+@@+.       ",
"     +@@@@+       ",
"     +@@@@+       ",
"     .+@@+.       ",
"      .++.        ",
"   +++++@+.       ",
"  +@@@@@@@+.      ",
"  +@@@@@@@@+      ",
"   +++++@@@+      ",
"    .+++@@@+.     ",
"    ++@@@@@+.     ",
"   .+@@@@@@@+.    ",
"   +@@@+++@@@+.   ",
"  +@@@+. ++@@@+.  ",
"  +@@+.   .+@@+.  ",
"  .+++     .+++.  ",
"   ..        ..   "};
