/* XPM */
static char *tb_maxwidth_xpm[] = {
"18 18 5 1",
" 	c None    s background",
".	c #FFFFFF",
"+	c #000000 s foreground",
"@	c #BBCCDD",
"#	c #888888 s bottomShadow",
"                  ",
"                  ",
"                  ",
"                  ",
".++++++++++++++++ ",
".+@@@@@@@@@@@@@.+ ",
".+@@+@@@@@@@@+@.+#",
".+@++@@@@@@@@++.+#",
".++++@@@@@@@@++++#",
".+@++@@@@@@@@++.+#",
".+@@+@@@@@@@@+@.+#",
".+..............+#",
".++++++++++++++++#",
"   ###############",
"                  ",
"                  ",
"                  ",
"                  "};
