/* XPM */
static char * tb_minimize_xpm[] = {
"18 18 5 1",
" 	c None    s background",
".	c #000000 s foreground",
"+	c #FFFFFF",
"@	c #BBCCDD",
"#	c #888888 s bottomShadow",
"                  ",
"      .....       ",
"       ...        ",
"        .         ",
"                  ",
" +.............   ",
" +.@@@@@@@@@@+.   ",
" +.@@+@@@@@@@+.#  ",
" +.@@@@@@@@@@+.#  ",
" +.@@@@@@@@@++.#  ",
" +.+++++++++++.#  ",
" +.............#  ",
"    ############  ",
"                  ",
"        .         ",
"       ...        ",
"      .....       ",
"                  "};
