/* XPM */
static char * tb_new_xpm[] = {
"18 18 5 1",
" 	c None",
".	c #888888",
"+	c #FFFFFF",
"@	c #000000",
"#	c #BBCCDD",
"         .  .+.   ",
"         +. .+. +.",
"  @@@@@@@.+.@+@+.+",
"  @#######@++++@..",
"  @#######++++++++",
"  @##+####@+@++@..",
"  @#++###.#+@+@+  ",
"  @#####.##+@+..+ ",
"  @########+@+. .+",
"  @########+@.   .",
"  @########+@.    ",
"  @########+@.    ",
"  @########+@.    ",
"  @########+@.    ",
"  @########+@.    ",
"  @+++++++++@.    ",
"  @@@@@@@@@@@.    ",
"    ..........    "};
