/* XPM */
static char * tb_open_xpm[] = {
"18 18 6 1",
" 	c None",
".	c #000000",
"+	c #887777",
"@	c #FFFFFF",
"#	c #AAAAAA",
"$	c #BBBBBB",
"                  ",
"    .........+    ",
"    .@@@@@@.@.+   ",
"    .@@@@@@.@@.+  ",
"    .@@@@@@....+  ",
"  ...@@@@@@@@@... ",
"  .#.########@. . ",
".............#.+.+",
".@@@@@@@@@@@@..+.+",
" .@$$$$$$$$$$+.+.+",
" .@$$$$$$$$$$$.+.+",
"  .@$$$$$$$$$$+..+",
"  .@$$$$$$$$$$$..+",
"   .@+++++++++++.+",
"   ..............+",
"     +++++++++++++",
"                  ",
"                  "};
