/* XPM */
static char * tb_open_xpm[] = {
"18 18 5 1",
" 	c None    s background",
".	c #000000 s foreground",
"+	c #888888 s bottomShadow",
"@	c #FFFFFF",
"$	c #BBBBBB",
"                  ",
"    .........+    ",
"    .@@@@@@.@.+   ",
"    .@@@@@@.@@.+  ",
"    .@@@@@@....+  ",
"  ...@@@@@@@@@... ",
"  .$.$$$$$$$$@. . ",
".............$.+.+",
".@@@@@@@@@@@@..+.+",
" .@$$$$$$$$$$+.+.+",
" .@$$$$$$$$$$$.+.+",
"  .@$$$$$$$$$$+..+",
"  .@$$$$$$$$$$$..+",
"   .@+++++++++++.+",
"   ..............+",
"     +++++++++++++",
"                  ",
"                  "};
