/* XPM */
static char * tb_paste_xpm[] = {
"18 18 5 1",
" 	c None",
".	c #000000",
"+	c #BBBBBB",
"@	c #888888",
"#	c #FFFFFF",
"                  ",
"     ....         ",
"     ....         ",
"  ...++++...@     ",
" .+@......@@.@    ",
" .+@@@@@@@@@.@    ",
" .+@@+..........  ",
" .+@@+.########.  ",
" .+@@+.#......#.@ ",
" .+@@+.########.@ ",
" .+@@+.########.@ ",
" .+@@+.#......#.@ ",
" .+@@+.########.@ ",
"  .....#..#####.@ ",
"   @@@.########.@ ",
"      ..........@ ",
"        @@@@@@@@@ ",
"                  "};
