/* XPM */
static char * tb_print_xpm[] = {
"18 18 6 1",
" 	c None    s background",
".	c #000000 s foreground",
"X	c #FFFFFF",
"o	c #BBBBBB",
"O	c #888888 s bottomShadow",
"+	c #FF1144",
"   .......        ",
"   .XXXXX..       ",
"   .X...X.X.      ",
"   .XXXXX....     ",
"   .X...XXXX.O    ",
"   .XXXXXXXX.O    ",
"   .X.....XX.O    ",
"   .XXXXXXXX.O    ",
"................  ",
".XXXXXXXXXXXXXO.  ",
".X++ooooooooooO.O ",
".XooooooooooooO.O ",
".XooooooooooooO.O ",
"................O ",
" .oooooooooooo.OO ",
" ..............O  ",
"   OOOOOOOOOOOOO  ",
"                  "};
