/* XPM */
static char * tb_paste_xpm[] = {
"18 18 6 1",
" 	c None    s background",
".	c #000000 s foreground",
"+	c #BBBBBB",
"X	c #888888",
"@	c #888888 s bottomShadow",
"#	c #FFFFFF",
"                  ",
"     ....         ",
"     ....         ",
"  ...++++...@     ",
" .+X......XX.@    ",
" .+XXXXXXXXX.@    ",
" .+XX+..........  ",
" .+XX+.########.  ",
" .+XX+.#......#.@ ",
" .+XX+.########.@ ",
" .+XX+.########.@ ",
" .+XX+.#......#.@ ",
" .+XX+.########.@ ",
"  .....#..#####.@ ",
"   @@@.########.@ ",
"      ..........@ ",
"        @@@@@@@@@ ",
"                  "};
