/* XPM */
static char * tb_replace_xpm[] = {
/* width height ncolors cpp [x_hot y_hot] */
"18 18 10 1 0 0",
/* colors */
" 	s none	m none	c none",
".	s iconColor1	m black	c #000000",
"X	s iconColor2	m white	c #FFFFFF",
"o	s bottomShadowColor	m black	c #5D6069",
"O	c #DDDDDD",
"+	s iconGray4	m white	c #949494",
"@	s iconColor3	m black	c #FF0000",
"#	s iconGray3	m white	c #adadad",
"$	s iconGray1	m white	c #dedede",
"%	s iconGray7	m black	c #424242",
/* pixels */
"                  ",
"  .........       ",
"  .XXXXXXX..      ",
"  .X..XXXX.X.     ",
"  oO..oXXX....    ",
"  o.X..XXXXXX.    ",
"  +....oXXXXX.o   ",
"  .XXX..XXXXX.o   ",
" ..oXo...XXXX.o   ",
"  +XXXXXXXXXX+o   ",
"  .X@@XX@XXX....  ",
"  .Xo@XX@@XX.#$.. ",
"  .XXo@@@@@X....  ",
"  .XXXXX@@XX.#$.. ",
"  .XXXXX@XXX.#$.. ",
"  ......o..%....  ",
"     ooooooooo    ",
"                  "};
