/* XPM */
static char * tb_replace_xpm[] = {
"18 18 6 1",
" 	c None",
".	c #000000",
"+	c #FFFFFF",
"@	c #888888",
"#	c #DDDDDD",
"$	c #FF1144",
"                  ",
"  .........       ",
"  .+++++++..      ",
"  .+..++++.+.     ",
"  @#..@+++....    ",
"  #.+..++++++.    ",
"  @....@+++++.@   ",
"  .+++..+++++.@   ",
" ..@+@...++++.@   ",
"  #++++++++++#@   ",
"  .+$$++$+++....# ",
"  .+@$++$$++.@+.. ",
"  .++@$$$$$+....# ",
"  .+++++$$++.@+.. ",
"  .+++++$+++.@+.. ",
"  ......#..#....# ",
"     @@@@@@@####  ",
"                  "};
