/* XPM */
static char * tb_save_session_xpm[] = {
"18 18 7 1",
" 	c None",
".	c #880000",
"+	c #FF1144",
"@	c #000000",
"#	c #FFFFFF",
"$	c #AAAAAA",
"%	c #888888",
"       ....       ",
"       .++.       ",
"       .++.       ",
"       .++.       ",
"     ...++...     ",
"      .++++.      ",
"       .++.       ",
"        ..        ",
"   @@@@@@@@@@@@@  ",
"  @##########$$%@ ",
" @############%%@ ",
" @#$$$$$$$$$++%%@ ",
" @#$$$$$$$$$$$%%@ ",
" @#@@@@@@@@@@$%%@%",
" @###########$%%@%",
" @$%%%%%%%%%%%%@% ",
"  @@@@@@@@@@@@@%  ",
"    %%%%%%%%%%%   "};
