/* XPM */
static char * tb_shell_xpm[] = {
"18 18 5 1",
" 	c None    s background",
".	c #000000 s foreground",
"+	c #887777 s bottomShadow",
"@	c #BBBBBB",
"#	c #FFFFFF",
"                  ",
"     ... ...      ",
"    .+@+++@+.     ",
"   .@#@+.+@#@.    ",
"   .+@#@+@#@+.    ",
"  .+@@@@.@@@@+.   ",
" .+@.+#@+@#+.@+.  ",
" .@@@+#@.@#+@@@.  ",
" .@#@.+#+#+.@#@.+ ",
" .+@#@.@.@.@#@+.+ ",
"  .+#@+@@@+@#+.+  ",
"   .+@@@#@@@+.+   ",
"    .@@###@@.+    ",
"    ..+@@@+..+    ",
"   .+@@@@@@@+.+   ",
"   ...........+   ",
"     ++++++++++   ",
"                  "};
