/* XPM */
static char * tb_undo_xpm[] = {
"18 18 4 1",
" 	c None    s background",
".	c #000000 s foreground",
"+	c #FFFFFF",
"@	c #888888 s bottomShadow",
"                  ",
"                  ",
"  ..  .....       ",
"  .+..+++++..     ",
"  .++++++++++.    ",
"  .++++....++.@   ",
"  .++++.@@@.++.   ",
"  .+++++.  .++.@  ",
"  .......@ .++.@  ",
"   @.@@@@@ .++.@  ",
"   .+.     .++.@  ",
"   .++.....++.@@  ",
"    .++++++++.@   ",
"     .+++++..@@   ",
"      .....@@@    ",
"       @@@@@      ",
"                  ",
"                  "};
