/* XPM */
static char *tb_vsplit_xpm[] = {
"18 18 5 1",
" 	c None",
".	c #FFFFFF",
"+	c #000000",
"@	c #BBCCDD",
"#	c #888888",
"                  ",
" .++++++++++++++  ",
" .+@@@@.+#@@@@.+  ",
" .+@@.@.+#@@.@.+# ",
" .+@..@.+#@..@.+# ",
" .+@@@@.+#@@@@.+# ",
" .+@@@@.+#@@@@.+# ",
" .+@@@@.+#@@@@.+# ",
" .+@@@@.+#@@@@.+# ",
" .+@@@@.+#@@@@.+# ",
" .+@@@@.+#@@@@.+# ",
" .+@@@@.+#@@@@.+# ",
" .+@@@@.+#@@@@.+# ",
" .+@@@@.+#@@@@.+# ",
" .+.....+......+# ",
" .++++++++++++++# ",
"    ############# ",
"                  "};
